<svg width="20" height="22" viewBox="0 0 20 22" fill="none" xmlns="http://www.w3.org/2000/svg">
<path d="M6.96021 21.9999C3.68595 21.981 0.977539 15.2971 0.977539 11.8932C0.977539 6.33284 5.14873 5.11554 6.75628 5.11554C7.48073 5.11554 8.2543 5.40003 8.9366 5.65179C9.41372 5.8274 9.90718 6.00869 10.1816 6.00869C10.3459 6.00869 10.733 5.85447 11.0748 5.71916C11.8036 5.429 12.7106 5.06836 13.7668 5.06836C13.7687 5.06836 13.7712 5.06836 13.7731 5.06836C14.5617 5.06836 16.9529 5.24144 18.3905 7.40036L18.7273 7.9064L18.2426 8.27211C17.5503 8.79452 16.287 9.74748 16.287 11.6351C16.287 13.8709 17.7177 14.7307 18.405 15.1442C18.7084 15.3267 19.0225 15.5149 19.0225 15.9266C19.0225 16.1953 16.8774 21.9665 13.7624 21.9665C13.0002 21.9665 12.4614 21.7374 11.9861 21.5354C11.5053 21.3308 11.0904 21.1546 10.405 21.1546C10.0576 21.1546 9.61821 21.3188 9.15307 21.4932C8.51744 21.7304 7.79797 21.9999 6.98161 21.9999H6.96021Z" fill="black"/>
<path d="M14.0967 0C14.1779 2.92514 12.0859 4.95447 9.99644 4.8272C9.65213 2.49283 12.0857 0 14.0967 0Z" fill="black"/>
</svg>
