<svg width="32" height="32" viewBox="0 0 32 32" fill="none" xmlns="http://www.w3.org/2000/svg">
<path fill-rule="evenodd" clip-rule="evenodd" d="M16.0267 2.66675C8.28008 2.66675 2.66675 8.99491 2.66675 16.0201C2.66675 18.2635 3.32008 20.5723 4.46675 22.6821C4.68008 23.0306 4.70675 23.47 4.56008 23.8852L3.66675 26.8764C3.46675 27.5975 4.08008 28.1303 4.76008 27.9166L7.45341 27.1168C8.18675 26.8764 8.76008 27.1822 9.44008 27.5975C11.3867 28.7445 13.8134 29.3334 16.0001 29.3334C22.6134 29.3334 29.3334 24.2191 29.3334 15.9801C29.3334 8.87473 23.6001 2.66675 16.0267 2.66675Z" fill="white"/>
<path fill-rule="evenodd" clip-rule="evenodd" d="M10.2024 17.741C9.37476 17.741 8.70239 17.068 8.70239 16.2397C8.70239 15.4139 9.37476 14.741 10.2024 14.741C11.03 14.741 11.7024 15.4139 11.7024 16.2397C11.7024 17.068 11.03 17.741 10.2024 17.741ZM16.2596 17.741C15.4319 17.741 14.7596 17.068 14.7596 16.2397C14.7596 15.4139 15.4319 14.741 16.2596 14.741C17.0872 14.741 17.7596 15.4139 17.7596 16.2397C17.7596 17.068 17.0872 17.741 16.2596 17.741ZM20.8168 16.2397C20.8168 17.068 21.4892 17.741 22.3168 17.741C23.1445 17.741 23.8168 17.068 23.8168 16.2397C23.8168 15.4139 23.1445 14.741 22.3168 14.741C21.4892 14.741 20.8168 15.4139 20.8168 16.2397Z" fill="#0F131B"/>
</svg>
