<svg width="48" height="48" viewBox="0 0 48 48" fill="none" xmlns="http://www.w3.org/2000/svg">
<circle cx="24" cy="24" r="24" fill="#F87700"/>
<path d="M22 25.9999C22.3259 26.3325 22.7148 26.5967 23.1441 26.7771C23.5734 26.9575 24.0344 27.0504 24.5 27.0504C24.9656 27.0504 25.4266 26.9575 25.8559 26.7771C26.2852 26.5967 26.6741 26.3325 27 25.9999L31 21.9999C31.663 21.3368 32.0355 20.4376 32.0355 19.4999C32.0355 18.5622 31.663 17.6629 31 16.9999C30.337 16.3368 29.4377 15.9644 28.5 15.9644C27.5623 15.9644 26.663 16.3368 26 16.9999L25.5 17.4999" stroke="white" stroke-width="1.5" stroke-linecap="round" stroke-linejoin="round"/>
<path d="M25.9994 21.9997C25.6735 21.6671 25.2846 21.4029 24.8553 21.2225C24.426 21.0421 23.965 20.9492 23.4994 20.9492C23.0338 20.9492 22.5728 21.0421 22.1435 21.2225C21.7143 21.4029 21.3253 21.6671 20.9994 21.9997L16.9994 25.9997C16.3364 26.6628 15.9639 27.562 15.9639 28.4997C15.9639 29.4374 16.3364 30.3367 16.9994 30.9997C17.6624 31.6628 18.5617 32.0353 19.4994 32.0353C20.4371 32.0353 21.3364 31.6628 21.9994 30.9997L22.4994 30.4997" stroke="white" stroke-width="1.5" stroke-linecap="round" stroke-linejoin="round"/>
</svg>
