<svg width="18" height="18" viewBox="0 0 18 18" fill="none" xmlns="http://www.w3.org/2000/svg">
<path d="M17.3206 7.43492L9.97861 7.43457C9.65439 7.43457 9.3916 7.69733 9.3916 8.02154V10.367C9.3916 10.6911 9.65439 10.954 9.97857 10.954H14.1132C13.6604 12.1289 12.8154 13.1129 11.7373 13.7381L13.5003 16.79C16.3283 15.1544 18.0003 12.2847 18.0003 9.07215C18.0003 8.61473 17.9666 8.28774 17.8991 7.91955C17.8479 7.63981 17.605 7.43492 17.3206 7.43492Z" fill="white"/>
<path d="M8.99995 14.4783C6.97657 14.4783 5.21018 13.3727 4.26149 11.7368L1.20972 13.4958C2.76274 16.1875 5.67206 18 8.99995 18C10.6325 18 12.1729 17.5604 13.5 16.7944V16.7902L11.737 13.7383C10.9306 14.206 9.99737 14.4783 8.99995 14.4783Z" fill="white"/>
<path d="M3.52174 9.00021C3.52174 8.00286 3.79392 7.06978 4.26153 6.2634L1.20976 4.50439C0.439523 5.82722 0 7.36347 0 9.00021C0 10.6369 0.439523 12.1732 1.20976 13.496L4.26153 11.737C3.79392 10.9306 3.52174 9.99755 3.52174 9.00021Z" fill="white"/>
<path d="M8.99995 3.52174C10.3194 3.52174 11.5314 3.99058 12.478 4.77046C12.7116 4.96283 13.051 4.94894 13.2649 4.73502L14.9268 3.07318C15.1695 2.83046 15.1522 2.43316 14.8929 2.20823C13.3068 0.832254 11.2432 0 8.99995 0C5.67206 0 2.76274 1.81255 1.20972 4.50418L4.26149 6.26319C5.21018 4.62726 6.97657 3.52174 8.99995 3.52174Z" fill="white"/>
</svg>
