<svg width="48" height="48" viewBox="0 0 48 48" fill="none" xmlns="http://www.w3.org/2000/svg">
<circle cx="24" cy="24" r="23" stroke="white" stroke-width="2"/>
<path fill-rule="evenodd" clip-rule="evenodd" d="M31.1039 26.4415C29.3939 28.3111 24.74 31.4747 22.3591 32.4904C21.9791 32.6521 21.0103 32.9947 20.8015 32.9994C20.3582 33.0137 19.9313 32.7616 19.7249 32.3572C19.6451 32.2002 19.4105 31.175 19.3355 30.7183C19.1126 29.3292 18.9977 27.1717 19 25.0024C18.9977 22.726 19.122 20.4663 19.3707 19.0915C19.4363 18.7204 19.6287 17.8665 19.685 17.7285C19.7905 17.4716 19.9829 17.2694 20.2151 17.1434C20.3934 17.0458 20.5975 16.9935 20.8015 17.0006C21.0103 17.0054 21.8595 17.3075 22.1503 17.424C24.4444 18.3279 29.2977 21.6057 31.0805 23.5324C31.24 23.7061 31.6786 24.1723 31.7514 24.2674C31.9179 24.4815 32 24.7408 32 25.0024C32 25.245 31.9273 25.4924 31.7772 25.6994C31.6997 25.8064 31.2517 26.2821 31.1039 26.4415Z" fill="white"/>
</svg>
